<svg xmlns="http://www.w3.org/2000/svg" width="78.973" height="126.358" viewBox="0 0 78.973 126.358">
  <path id="Icon_metro-location" data-name="Icon metro-location" d="M47.842,1.928A39.487,39.487,0,0,0,8.355,41.415c0,39.487,39.487,86.871,39.487,86.871S87.328,80.9,87.328,41.415A39.487,39.487,0,0,0,47.842,1.928Zm0,63.672A24.186,24.186,0,1,1,72.027,41.415,24.186,24.186,0,0,1,47.842,65.6ZM32.54,41.415a15.3,15.3,0,1,1,15.3,15.3A15.3,15.3,0,0,1,32.54,41.415Z" transform="translate(-8.355 -1.928)" fill="#52ffff"/>
</svg>
