<svg xmlns="http://www.w3.org/2000/svg" width="139.687" height="97.781" viewBox="0 0 139.687 97.781">
  <path id="Icon_awesome-users" data-name="Icon awesome-users" d="M20.953,44.156A13.969,13.969,0,1,0,6.984,30.187,13.982,13.982,0,0,0,20.953,44.156Zm97.781,0a13.969,13.969,0,1,0-13.969-13.969A13.982,13.982,0,0,0,118.734,44.156Zm6.984,6.984H111.75a13.928,13.928,0,0,0-9.844,4.06A31.926,31.926,0,0,1,118.3,79.078H132.7a6.977,6.977,0,0,0,6.984-6.984V65.109A13.982,13.982,0,0,0,125.718,51.141Zm-55.875,0A24.445,24.445,0,1,0,45.4,26.7,24.433,24.433,0,0,0,69.844,51.141Zm16.762,6.984H84.794a33.75,33.75,0,0,1-29.9,0H53.081A25.15,25.15,0,0,0,27.937,83.269v6.286a10.479,10.479,0,0,0,10.477,10.477h62.859A10.479,10.479,0,0,0,111.75,89.554V83.269A25.15,25.15,0,0,0,86.606,58.125ZM37.781,55.2a13.928,13.928,0,0,0-9.844-4.06H13.969A13.982,13.982,0,0,0,0,65.109v6.984a6.977,6.977,0,0,0,6.984,6.984H21.368A32.006,32.006,0,0,1,37.781,55.2Z" transform="translate(0 -2.25)" fill="#ffbdde"/>
</svg>
